{
	"asset":{
		"generator":"Khronos glTF Blender I/O v5.0.21",
		"version":"2.0"
	},
	"extensionsUsed":[
		"KHR_materials_specular"
	],
	"scene":0,
	"scenes":[
		{
			"name":"Scene",
			"nodes":[
				0,
				1,
				2
			]
		}
	],
	"nodes":[
		{
			"mesh":0,
			"name":"body",
			"rotation":[
				0.7071068286895752,
				0,
				0,
				0.7071068286895752
			],
			"scale":[
				0.009999999776482582,
				0.009999999776482582,
				0.009999999776482582
			]
		},
		{
			"mesh":1,
			"name":"Logo",
			"rotation":[
				1,
				0,
				0,
				7.549790126404332e-08
			],
			"scale":[
				0.012846475467085838,
				0.01620912179350853,
				0.015685532242059708
			],
			"translation":[
				0,
				0.02686850167810917,
				0.0010588935110718012
			]
		},
		{
			"mesh":2,
			"name":"schermo1",
			"rotation":[
				0.7071068286895752,
				0,
				0,
				0.7071068286895752
			],
			"scale":[
				0.0279999990016222,
				0.0020000000949949026,
				0.03999999910593033
			],
			"translation":[
				0,
				0.03910868614912033,
				2.5228691811207682e-05
			]
		}
	],
	"materials":[
		{
			"doubleSided":true,
			"extensions":{
				"KHR_materials_specular":{
					"specularColorFactor":[
						0.5,
						0.5,
						0.5
					]
				}
			},
			"name":"body1",
			"pbrMetallicRoughness":{
				"baseColorFactor":[
					0.36800000071525574,
					0.36800000071525574,
					0.36800000071525574,
					1
				],
				"metallicFactor":0,
				"roughnessFactor":0.7487671971321106
			}
		},
		{
			"alphaMode":"BLEND",
			"doubleSided":true,
			"name":"lambert2",
			"pbrMetallicRoughness":{
				"baseColorTexture":{
					"index":0
				},
				"metallicFactor":0,
				"roughnessFactor":0.5
			}
		},
		{
			"doubleSided":true,
			"name":"schermo",
			"pbrMetallicRoughness":{
				"baseColorFactor":[
					0,
					0,
					0,
					1
				],
				"metallicFactor":0,
				"roughnessFactor":0.5
			}
		}
	],
	"meshes":[
		{
			"name":"Mesh.007",
			"primitives":[
				{
					"attributes":{
						"POSITION":0,
						"NORMAL":1,
						"TEXCOORD_0":2
					},
					"indices":3,
					"material":0
				}
			]
		},
		{
			"name":"Mesh.006",
			"primitives":[
				{
					"attributes":{
						"POSITION":4,
						"NORMAL":5,
						"TEXCOORD_0":6
					},
					"indices":7,
					"material":1
				}
			]
		},
		{
			"name":"Mesh.008",
			"primitives":[
				{
					"attributes":{
						"POSITION":8,
						"NORMAL":9,
						"TEXCOORD_0":10
					},
					"indices":7,
					"material":2
				}
			]
		}
	],
	"textures":[
		{
			"sampler":0,
			"source":0
		}
	],
	"images":[
		{
			"mimeType":"image/png",
			"name":"XRTOURGUIDE_TONDO_infopoint",
			"uri":"XRTOURGUIDE_TONDO_infopoint.png"
		}
	],
	"accessors":[
		{
			"bufferView":0,
			"componentType":5126,
			"count":210,
			"max":[
				1.5,
				0.10000000149011612,
				0
			],
			"min":[
				-1.5,
				-0.10000000149011612,
				-8
			],
			"type":"VEC3"
		},
		{
			"bufferView":1,
			"componentType":5126,
			"count":210,
			"type":"VEC3"
		},
		{
			"bufferView":2,
			"componentType":5126,
			"count":210,
			"type":"VEC2"
		},
		{
			"bufferView":3,
			"componentType":5123,
			"count":468,
			"type":"SCALAR"
		},
		{
			"bufferView":4,
			"componentType":5126,
			"count":4,
			"max":[
				0.5,
				0.5,
				0
			],
			"min":[
				-0.5,
				-0.5,
				0
			],
			"type":"VEC3"
		},
		{
			"bufferView":5,
			"componentType":5126,
			"count":4,
			"type":"VEC3"
		},
		{
			"bufferView":6,
			"componentType":5126,
			"count":4,
			"type":"VEC2"
		},
		{
			"bufferView":7,
			"componentType":5123,
			"count":6,
			"type":"SCALAR"
		},
		{
			"bufferView":8,
			"componentType":5126,
			"count":4,
			"max":[
				0.5,
				0.5,
				0
			],
			"min":[
				-0.5,
				0.5,
				-1
			],
			"type":"VEC3"
		},
		{
			"bufferView":9,
			"componentType":5126,
			"count":4,
			"type":"VEC3"
		},
		{
			"bufferView":10,
			"componentType":5126,
			"count":4,
			"type":"VEC2"
		}
	],
	"bufferViews":[
		{
			"buffer":0,
			"byteLength":2520,
			"byteOffset":0,
			"target":34962
		},
		{
			"buffer":0,
			"byteLength":2520,
			"byteOffset":2520,
			"target":34962
		},
		{
			"buffer":0,
			"byteLength":1680,
			"byteOffset":5040,
			"target":34962
		},
		{
			"buffer":0,
			"byteLength":936,
			"byteOffset":6720,
			"target":34963
		},
		{
			"buffer":0,
			"byteLength":48,
			"byteOffset":7656,
			"target":34962
		},
		{
			"buffer":0,
			"byteLength":48,
			"byteOffset":7704,
			"target":34962
		},
		{
			"buffer":0,
			"byteLength":32,
			"byteOffset":7752,
			"target":34962
		},
		{
			"buffer":0,
			"byteLength":12,
			"byteOffset":7784,
			"target":34963
		},
		{
			"buffer":0,
			"byteLength":48,
			"byteOffset":7796,
			"target":34962
		},
		{
			"buffer":0,
			"byteLength":48,
			"byteOffset":7844,
			"target":34962
		},
		{
			"buffer":0,
			"byteLength":32,
			"byteOffset":7892,
			"target":34962
		}
	],
	"samplers":[
		{
			"magFilter":9729,
			"minFilter":9987
		}
	],
	"buffers":[
		{
			"byteLength":7924,
			"uri":"totem_body.bin"
		}
	]
}
